<svg width="48" height="48" viewBox="0 0 48 48" fill="none" xmlns="http://www.w3.org/2000/svg">
<path d="M40 0C44.4183 0 48 3.58172 48 8V40C48 44.4183 44.4183 48 40 48H8C3.58172 48 0 44.4183 0 40V8C5.15405e-07 3.58172 3.58172 0 8 0H40Z" fill="#F3F4F6"/>
<path d="M40 0C44.4183 0 48 3.58172 48 8V40C48 44.4183 44.4183 48 40 48H8C3.58172 48 0 44.4183 0 40V8C5.15405e-07 3.58172 3.58172 0 8 0H40Z" stroke="#E5E7EB"/>
<path d="M36.5 38H11.5V10H36.5V38Z" stroke="#E5E7EB"/>
<g clip-path="url(#clip0_179_3016)">
<path d="M16.0665 19.6914C15.7735 20.0391 15.3048 20.3125 14.836 20.2734C14.7774 19.8047 15.0079 19.3047 15.2774 19C15.5704 18.6445 16.0821 18.3906 16.5001 18.3711C16.547 18.8555 16.3556 19.3359 16.0665 19.6914ZM16.4923 20.3633C15.8126 20.3242 15.2306 20.75 14.9103 20.75C14.5821 20.75 14.0899 20.3828 13.5509 20.3945C12.8517 20.4063 12.2032 20.8008 11.8478 21.4297C11.1134 22.6914 11.6564 24.5547 12.3673 25.582C12.7149 26.0898 13.129 26.6484 13.6759 26.6289C14.1954 26.6094 14.3985 26.293 15.0235 26.293C15.6524 26.293 15.836 26.6289 16.3829 26.6211C16.9493 26.6094 17.3048 26.1133 17.6524 25.6055C18.047 25.0273 18.211 24.4688 18.2189 24.4375C18.2071 24.4258 17.1251 24.0117 17.1134 22.7617C17.1017 21.7148 17.9689 21.2188 18.0079 21.1875C17.5196 20.4609 16.7579 20.3828 16.4923 20.3633ZM20.4142 18.9492V26.5625H21.5978V23.9609H23.2345C24.7306 23.9609 25.7774 22.9336 25.7774 21.4492C25.7774 19.9648 24.7462 18.9492 23.2735 18.9492H20.4142ZM21.5978 19.9453H22.961C23.9884 19.9453 24.5743 20.4922 24.5743 21.4531C24.5743 22.4141 23.9884 22.9688 22.9571 22.9688H21.5978V19.9453ZM27.9337 26.6211C28.6759 26.6211 29.3634 26.2461 29.6759 25.6484H29.6993V26.5625H30.7931V22.7734C30.7931 21.6758 29.9142 20.9648 28.5626 20.9648C27.3087 20.9648 26.379 21.6836 26.3439 22.668H27.4103C27.5001 22.1992 27.9337 21.8906 28.5274 21.8906C29.2501 21.8906 29.6564 22.2266 29.6564 22.8477V23.2695L28.1798 23.3594C26.8087 23.4414 26.0665 24.0039 26.0665 24.9805C26.0704 25.9648 26.836 26.6211 27.9337 26.6211ZM28.254 25.7187C27.6251 25.7187 27.2228 25.4141 27.2228 24.9531C27.2228 24.4727 27.6095 24.1953 28.3478 24.1523L29.6603 24.0703V24.5C29.6603 25.2109 29.0548 25.7187 28.254 25.7187ZM32.2579 28.6328C33.4103 28.6328 33.9532 28.1914 34.4259 26.8594L36.5001 21.0391H35.297L33.9064 25.5352H33.8829L32.4923 21.0391H31.2579L33.2579 26.582L33.1485 26.918C32.9689 27.4883 32.6759 27.7109 32.1524 27.7109C32.0587 27.7109 31.879 27.6992 31.8048 27.6914V28.6055C31.8751 28.6211 32.1681 28.6328 32.2579 28.6328Z" fill="#1F2937"/>
</g>
<defs>
<clipPath id="clip0_179_3016">
<path d="M11.5 13.5H36.5V33.5H11.5V13.5Z" fill="white"/>
</clipPath>
</defs>
</svg>
