<svg width="48" height="48" viewBox="0 0 48 48" fill="none" xmlns="http://www.w3.org/2000/svg">
<path d="M40 0C44.4183 0 48 3.58172 48 8V40C48 44.4183 44.4183 48 40 48H8C3.58172 48 0 44.4183 0 40V8C5.15405e-07 3.58172 3.58172 0 8 0H40Z" fill="#DBEAFE"/>
<path d="M40 0C44.4183 0 48 3.58172 48 8V40C48 44.4183 44.4183 48 40 48H8C3.58172 48 0 44.4183 0 40V8C5.15405e-07 3.58172 3.58172 0 8 0H40Z" stroke="#E5E7EB"/>
<path d="M36.5 38H11.5V10H36.5V38Z" stroke="#E5E7EB"/>
<g clip-path="url(#clip0_179_3029)">
<path d="M15.6297 21.8982V23.5096H17.8601C17.8152 23.7664 17.7189 24.0116 17.577 24.2304C17.4351 24.4492 17.2505 24.6372 17.0344 24.783C16.6617 25.0389 16.1859 25.1846 15.6281 25.1846C14.55 25.1846 13.6387 24.4459 13.3117 23.4572C13.1406 22.9371 13.1406 22.3758 13.3117 21.8557C13.6387 20.8611 14.55 20.1225 15.6281 20.1225C15.9204 20.117 16.2108 20.1698 16.4824 20.2776C16.7541 20.3854 17.0016 20.5462 17.2105 20.7506L18.3934 19.5545C17.6484 18.8467 16.6572 18.4567 15.6297 18.467C14.861 18.4699 14.1085 18.6877 13.457 19.0957C12.8056 19.5037 12.2812 20.0857 11.943 20.776C11.6516 21.3593 11.5 22.0024 11.5 22.6545C11.5 23.3065 11.6516 23.9497 11.943 24.533V24.5389C12.2812 25.2287 12.8058 25.8102 13.4573 26.2175C14.1089 26.6248 14.8613 26.8416 15.6297 26.8436C16.7418 26.8436 17.6824 26.4713 18.3641 25.8314C19.1453 25.1045 19.591 24.0287 19.591 22.749C19.5915 22.464 19.5686 22.1795 19.5226 21.8982H15.6297ZM30.841 21.742C30.4453 21.3756 29.9062 21.1897 29.2242 21.1897C28.3469 21.1897 27.6875 21.5154 27.2516 22.1607L28.066 22.6787C28.3642 22.236 28.7712 22.0147 29.2871 22.0147C29.6156 22.0155 29.9321 22.1378 30.1758 22.358C30.2945 22.4611 30.3898 22.5885 30.4551 22.7316C30.5204 22.8746 30.5542 23.03 30.5543 23.1873V23.4025C30.1988 23.2045 29.7516 23.0998 29.2012 23.0998C28.559 23.0998 28.043 23.2514 27.6586 23.5596C27.2742 23.8678 27.0797 24.2748 27.0797 24.7924C27.0737 25.0237 27.1194 25.2534 27.2137 25.4648C27.3079 25.6761 27.4481 25.8637 27.6242 26.0139C27.9855 26.3397 28.4445 26.5025 28.9832 26.5025C29.6195 26.5025 30.1242 26.2174 30.5066 25.6475H30.5457V26.3397H31.4289V23.2654C31.4316 22.6189 31.2367 22.1068 30.841 21.742ZM30.0898 25.2303C29.9544 25.3681 29.7928 25.4776 29.6147 25.5525C29.4365 25.6273 29.2452 25.666 29.0519 25.6662C28.7922 25.6705 28.539 25.5842 28.3359 25.4221C28.2412 25.3511 28.1644 25.2589 28.1117 25.1528C28.059 25.0468 28.0318 24.9299 28.0324 24.8115C28.0324 24.5381 28.1582 24.3111 28.4051 24.1311C28.6519 23.951 28.9727 23.8576 29.3453 23.8576C29.8594 23.8514 30.2617 23.9686 30.5484 24.2006C30.5484 24.5963 30.3937 24.9393 30.0898 25.2303ZM26.4316 19.6834C26.2243 19.4762 25.9773 19.313 25.7054 19.2035C25.4335 19.0941 25.1423 19.0408 24.8492 19.0467H22.4012V26.3412H23.3242V23.3865H24.8477C25.4727 23.3865 26 23.1772 26.4301 22.7643C26.4644 22.7295 26.4988 22.6943 26.5336 22.6596C26.91 22.2488 27.1102 21.7067 27.0911 21.1499C27.0721 20.593 26.8353 20.0659 26.4316 19.6818V19.6834ZM25.784 22.1143C25.6676 22.2385 25.5261 22.3364 25.3689 22.4016C25.2117 22.4669 25.0424 22.4978 24.8723 22.4924H23.3242V19.9451H24.8723C25.2026 19.9439 25.52 20.0736 25.7551 20.3057C25.9942 20.5438 26.131 20.8659 26.1364 21.2033C26.1418 21.5408 26.0154 21.867 25.784 22.1127V22.1143ZM35.4965 21.3514L34.0691 24.9334H34.0516L32.5898 21.3514H31.5863L33.6094 26.0213L32.4629 28.5338H33.4141L36.5 21.3514H35.4965Z" fill="#2563EB"/>
</g>
<defs>
<clipPath id="clip0_179_3029">
<path d="M11.5 13.5H36.5V33.5H11.5V13.5Z" fill="white"/>
</clipPath>
</defs>
</svg>
