<svg width="48" height="48" viewBox="0 0 48 48" fill="none" xmlns="http://www.w3.org/2000/svg">
<path d="M40 0C44.4183 0 48 3.58172 48 8V40C48 44.4183 44.4183 48 40 48H8C3.58172 48 0 44.4183 0 40V8C5.15405e-07 3.58172 3.58172 0 8 0H40Z" fill="#F3E8FF"/>
<path d="M40 0C44.4183 0 48 3.58172 48 8V40C48 44.4183 44.4183 48 40 48H8C3.58172 48 0 44.4183 0 40V8C5.15405e-07 3.58172 3.58172 0 8 0H40Z" stroke="#E5E7EB"/>
<path d="M36.5 38H11.5V10H36.5V38Z" stroke="#E5E7EB"/>
<g clip-path="url(#clip0_179_3003)">
<path d="M17.9453 19.1523L16.2539 19.5117L16.2461 25.0742C16.2461 26.1016 17.0195 26.7656 18.0469 26.7656C18.6172 26.7656 19.0352 26.6602 19.2656 26.5352V25.2148C19.043 25.3047 17.9492 25.625 17.9492 24.6016V22.1328H19.2656V20.6562H17.9492L17.9453 19.1523ZM21.4258 21.168L21.3203 20.6562H19.8203V26.6406H21.5508V22.6133C21.9609 22.0742 22.6523 22.1797 22.875 22.25V20.6562C22.6406 20.5742 21.832 20.4219 21.4258 21.168ZM25.0312 18.3438L23.2891 18.7148V20.1289L25.0312 19.7578V18.3438ZM13.2539 22.418C13.2539 22.1484 13.4805 22.043 13.8438 22.0391C14.3711 22.0391 15.043 22.1992 15.5703 22.4844V20.8516C14.9961 20.625 14.4219 20.5352 13.8477 20.5352C12.4414 20.5352 11.5039 21.2695 11.5039 22.4961C11.5039 24.418 14.1406 24.1055 14.1406 24.9336C14.1406 25.2539 13.8633 25.3594 13.4766 25.3594C12.9023 25.3594 12.1602 25.1211 11.5781 24.8047V26.3672C12.2227 26.6445 12.875 26.7617 13.4727 26.7617C14.9141 26.7617 15.9062 26.1445 15.9062 24.8945C15.9062 22.8281 13.2539 23.1992 13.2539 22.418ZM36.5 23.7188C36.5 21.9414 35.6406 20.5391 33.9922 20.5391C32.3438 20.5391 31.3398 21.9414 31.3398 23.707C31.3398 25.7969 32.5234 26.7617 34.2109 26.7617C35.0391 26.7617 35.6602 26.5742 36.1328 26.3125V25.0078C35.6602 25.2461 35.1172 25.3906 34.4297 25.3906C33.7539 25.3906 33.1602 25.1523 33.082 24.3398H36.4766C36.4844 24.25 36.5 23.8867 36.5 23.7188ZM33.0664 23.0625C33.0664 22.2812 33.5469 21.9531 33.9805 21.9531C34.4062 21.9531 34.8594 22.2812 34.8594 23.0625H33.0664ZM28.6562 20.5391C27.9766 20.5391 27.5391 20.8594 27.2969 21.082L27.207 20.6523H25.6797V28.6523L27.4141 28.2852L27.418 26.3242C27.668 26.5078 28.0391 26.7617 28.6445 26.7617C29.8867 26.7617 31.0195 25.8555 31.0195 23.6523C31.0234 21.6367 29.875 20.5391 28.6562 20.5391ZM28.2422 25.3242C27.8359 25.3242 27.5938 25.1758 27.4258 24.9961L27.4141 22.418C27.5938 22.2188 27.8438 22.0742 28.2422 22.0742C28.875 22.0742 29.3125 22.7852 29.3125 23.6914C29.3164 24.625 28.8867 25.3242 28.2422 25.3242ZM23.293 26.6406H25.0352V20.6562H23.293V26.6406Z" fill="#9333EA"/>
</g>
<defs>
<clipPath id="clip0_179_3003">
<path d="M11.5 13.5H36.5V33.5H11.5V13.5Z" fill="white"/>
</clipPath>
</defs>
</svg>
